HIERARCHY
ROOT Hips
{
	OFFSET 0.000000 0.000000 0.000000
	CHANNELS 6 Xposition Yposition Zposition Zrotation Yrotation Xrotation 
	JOINT LHipJoint
	{
		OFFSET 0.000000 0.000000 0.000000
		CHANNELS 3 Zrotation Yrotation Xrotation
		JOINT LeftUpLeg
		{
			OFFSET 1.363060 -1.794630 0.839290
			CHANNELS 3 Zrotation Yrotation Xrotation
			JOINT LeftLeg
			{
				OFFSET 2.448110 -6.726130 0.000000
				CHANNELS 3 Zrotation Yrotation Xrotation
				JOINT LeftFoot
				{
					OFFSET 2.562200 -7.039590 0.000000
					CHANNELS 3 Zrotation Yrotation Xrotation
					JOINT LeftToeBase
					{
						OFFSET 0.157640 -0.433110 2.322550
						CHANNELS 3 Zrotation Yrotation Xrotation
						End Site
						{
							OFFSET 0.000000 0.000000 0.000000
						}
					}
				}
			}
		}
	}
	JOINT RHipJoint
	{
		OFFSET 0.000000 0.000000 0.000000
		CHANNELS 3 Zrotation Yrotation Xrotation
		JOINT RightUpLeg
		{
			OFFSET -1.305520 -1.794630 0.839290
			CHANNELS 3 Zrotation Yrotation Xrotation
			JOINT RightLeg
			{
				OFFSET -2.542530 -6.985550 0.000000
				CHANNELS 3 Zrotation Yrotation Xrotation
				JOINT RightFoot
				{
					OFFSET -2.568260 -7.056230 0.000000
					CHANNELS 3 Zrotation Yrotation Xrotation
					JOINT RightToeBase
					{
						OFFSET -0.164730 -0.452590 2.363150
						CHANNELS 3 Zrotation Yrotation Xrotation
						End Site
						{
							OFFSET 0.000000 0.000000 0.000000
						}
					}
				}
			}
		}
	}
	JOINT LowerBack
	{
		OFFSET 0.000000 0.000000 0.000000
		CHANNELS 3 Zrotation Yrotation Xrotation
		JOINT Spine
		{
			OFFSET 0.028270 2.035590 -0.193380
			CHANNELS 3 Zrotation Yrotation Xrotation
			JOINT Spine1
			{
				OFFSET 0.056720 2.048850 -0.042750
				CHANNELS 3 Zrotation Yrotation Xrotation
				JOINT Neck
				{
					OFFSET 0.000000 0.000000 0.000000
					CHANNELS 3 Zrotation Yrotation Xrotation
					JOINT Neck1
					{
						OFFSET -0.054170 1.746240 0.172020
						CHANNELS 3 Zrotation Yrotation Xrotation
						JOINT Head
						{
							OFFSET 0.104070 1.761360 -0.123970
							CHANNELS 3 Zrotation Yrotation Xrotation
							End Site
							{
								OFFSET 0.000000 0.000000 0.000000
							}
						}
					}
				}
				JOINT LeftShoulder
				{
					OFFSET 0.000000 0.000000 0.000000
					CHANNELS 3 Zrotation Yrotation Xrotation
					JOINT LeftArm
					{
						OFFSET 3.362410 1.200890 -0.311210
						CHANNELS 3 Zrotation Yrotation Xrotation
						JOINT LeftForeArm
						{
							OFFSET 4.983000 -0.000000 -0.000000
							CHANNELS 3 Zrotation Yrotation Xrotation
							JOINT LeftHand
							{
								OFFSET 3.483560 -0.000000 -0.000000
								CHANNELS 3 Zrotation Yrotation Xrotation
								JOINT LeftFingerBase
								{
									OFFSET 0.000000 0.000000 0.000000
									CHANNELS 3 Zrotation Yrotation Xrotation
									JOINT LeftHandIndex1
									{
										OFFSET 0.715260 -0.000000 -0.000000
										CHANNELS 3 Zrotation Yrotation Xrotation
										End Site
										{
											OFFSET 0.000000 0.000000 0.000000
										}
									}
								}
								JOINT LThumb
								{
									OFFSET 0.000000 0.000000 0.000000
									CHANNELS 3 Zrotation Yrotation Xrotation
									End Site
									{
										OFFSET 0.000000 0.000000 0.000000
									}
								}
							}
						}
					}
				}
				JOINT RightShoulder
				{
					OFFSET 0.000000 0.000000 0.000000
					CHANNELS 3 Zrotation Yrotation Xrotation
					JOINT RightArm
					{
						OFFSET -3.136600 1.374050 -0.404650
						CHANNELS 3 Zrotation Yrotation Xrotation
						JOINT RightForeArm
						{
							OFFSET -5.241900 -0.000000 -0.000000
							CHANNELS 3 Zrotation Yrotation Xrotation
							JOINT RightHand
							{
								OFFSET -3.444170 -0.000000 -0.000000
								CHANNELS 3 Zrotation Yrotation Xrotation
								JOINT RightFingerBase
								{
									OFFSET 0.000000 0.000000 0.000000
									CHANNELS 3 Zrotation Yrotation Xrotation
									JOINT RightHandIndex1
									{
										OFFSET -0.622530 -0.000000 -0.000000
										CHANNELS 3 Zrotation Yrotation Xrotation
										End Site
										{
											OFFSET 0.000000 0.000000 0.000000
										}
									}
								}
								JOINT RThumb
								{
									OFFSET 0.000000 0.000000 0.000000
									CHANNELS 3 Zrotation Yrotation Xrotation
									End Site
									{
										OFFSET 0.000000 0.000000 0.000000
									}
								}
							}
						}
					}
				}
			}
		}
	}
}
MOTION
Frames: 5
Frame Time: 0.008333
8.109522 21.442291 1.657013 44.776450 -87.852097 -23.329433 -11.528381 3.041790 1.875494 -6.715908 4.999769 -19.966481 -0.021694 0.843431 24.749819 1.969828 5.023140 38.475877 2.733600 0.000000 -66.337701 11.346079 -2.757676 -1.609196 3.288496 -19.079887 -14.990259 1.275464 -1.415520 17.212718 -0.710944 4.424186 36.554789 3.293000 0.000000 -81.397100 0.025327 -0.715570 -0.756870 0.211531 -0.669990 -2.483731 -1.626385 -0.658120 1.041223 -1.306314 -7.838245 3.463584 -2.428807 -0.314449 2.900050 0.000000 0.000000 0.000000 19.165857 10.562696 -4.089474 -71.314222 -30.788584 16.732045 179.464120 -48.247202 179.843426 9.795440 -9.983692 -0.983364 -0.231398 1.191254 -0.000000 0.000000 0.000000 0.000000 0.000000 0.000000 0.000000 -8.500886 -9.448388 -4.667509 34.553639 46.562580 -7.186582 -178.095396 65.398252 179.703411 -25.384330 19.928536 -4.864606 0.404273 -1.088865 -0.000000 0.000000 0.000000 0.000000 0.000000 0.000000 0.000000 
7.921739 21.563843 1.645452 42.602075 -87.881247 -20.982188 -11.529418 2.904678 1.705488 -7.089510 5.519661 -21.012380 -0.088471 0.855277 24.574391 1.954998 5.285079 38.271776 2.926300 -0.000001 -66.056400 11.294196 -2.664620 -1.760926 3.864105 -19.507534 -16.044780 1.415725 -1.440481 17.207187 -0.614526 4.883999 35.958617 3.537000 -0.000000 -81.385300 0.122553 -0.693902 -0.394097 0.246080 -0.651691 -2.373938 -1.528659 -0.644995 1.180756 -1.439010 -7.947303 3.439269 -2.478390 -0.315733 2.878858 0.000000 0.000000 0.000000 19.595691 11.353341 -4.116203 -71.165914 -30.261676 15.823636 179.268061 -46.593191 179.822514 10.918258 -11.357144 -1.242462 -0.276131 1.266541 -0.000000 0.000000 0.000000 0.000000 0.000000 0.000000 0.000000 -8.692608 -9.979510 -4.919502 33.568849 46.340628 -8.659507 -177.892773 63.612082 179.686834 -27.217469 20.583572 -5.405270 0.454672 -1.116518 -0.000000 0.000000 0.000000 0.000000 0.000000 0.000000 0.000000 
7.735035 21.675472 1.633590 40.567143 -87.894684 -18.730004 -11.517705 2.768831 1.557976 -7.490005 5.900616 -22.064452 -0.158571 0.863324 24.242095 1.935796 5.624627 37.977981 3.172200 -0.000000 -66.123200 11.237239 -2.563346 -1.907584 4.467313 -19.893377 -17.143901 1.559239 -1.457459 17.098204 -0.525395 5.130730 35.302980 3.626600 0.000000 -81.658100 0.197708 -0.677403 -0.053053 0.275621 -0.637098 -2.268638 -1.437584 -0.635939 1.316349 -1.550560 -8.087845 3.390477 -2.511487 -0.315841 2.851261 0.000000 0.000000 0.000000 19.983378 12.114432 -4.137312 -70.994347 -29.774593 14.973319 179.041779 -45.174645 179.797728 12.303965 -12.957706 -1.592997 -0.330802 1.350510 -0.000000 0.000000 0.000000 0.000000 0.000000 0.000000 0.000000 -8.900092 -10.517071 -5.157319 32.815448 46.114553 -9.968197 -177.698117 61.962823 179.672416 -28.957023 21.101494 -5.914637 0.504053 -1.139505 -0.000000 0.000000 0.000000 0.000000 0.000000 0.000000 0.000000 
7.548304 21.776139 1.621434 38.664269 -87.899079 -16.571449 -11.494873 2.639971 1.433214 -7.913034 6.175998 -23.141905 -0.236075 0.871192 23.814235 1.902897 5.948613 37.503675 3.400300 -0.000000 -65.592300 11.173333 -2.459907 -2.038564 5.100745 -20.219411 -18.289511 1.706190 -1.467243 16.920897 -0.439884 5.176918 34.522326 3.568400 0.000001 -81.564200 0.249892 -0.666568 0.249437 0.300842 -0.626762 -2.174077 -1.349801 -0.631564 1.439490 -1.639288 -8.239777 3.331192 -2.527108 -0.314932 2.821617 0.000000 0.000000 0.000000 20.356639 12.805253 -4.154376 -70.828769 -29.275147 14.181987 178.789217 -43.979193 179.770604 13.874047 -14.695762 -2.033280 -0.390769 1.437805 -0.000000 0.000000 0.000000 0.000000 0.000000 0.000000 0.000000 -9.132437 -11.028001 -5.373956 32.300197 45.862085 -11.094138 -177.515502 60.453559 179.660351 -30.540884 21.483355 -6.370408 0.550709 -1.157989 -0.000000 0.000000 0.000000 0.000000 0.000000 0.000000 0.000000 
7.361670 21.865115 1.608816 36.950769 -87.898220 -14.571105 -11.461007 2.516505 1.329888 -8.353815 6.339596 -24.229247 -0.319761 0.877202 23.298616 1.860198 6.263182 36.896246 3.615900 0.000001 -65.004300 11.102135 -2.353578 -2.152652 5.756875 -20.464443 -19.465009 1.853843 -1.468950 16.679835 -0.361105 5.016806 33.632276 3.365300 0.000000 -81.373800 0.276206 -0.661410 0.516129 0.321117 -0.620556 -2.090508 -1.265227 -0.631571 1.547343 -1.702548 -8.398472 3.267449 -2.524892 -0.313073 2.791686 0.000000 0.000000 0.000000 20.730980 13.416611 -4.169446 -70.681689 -28.758869 13.447942 178.516128 -43.002977 179.742198 15.582603 -16.517256 -2.563926 -0.452571 1.524613 -0.000000 0.000000 0.000000 0.000000 0.000000 0.000000 0.000000 -9.388537 -11.501226 -5.565494 32.004591 45.585826 -12.042365 -177.347379 59.084642 179.650590 -31.924731 21.732988 -6.755189 0.593269 -1.172222 -0.000000 0.000000 0.000000 0.000000 0.000000 0.000000 0.000000 
